<svg width="375" height="812" viewBox="0 0 375 812" xmlns="http://www.w3.org/2000/svg">
  <rect width="375" height="812" fill="#f8fafc"/>
  <rect x="0" y="60" width="375" height="60" fill="#1a1a4e"/>
  <circle cx="30" cy="95" r="20" fill="none" stroke="white" stroke-width="2"/>
  <line x1="25" y1="90" x2="35" y2="100" stroke="white" stroke-width="2"/>
  <line x1="35" y1="90" x2="25" y2="100" stroke="white" stroke-width="2"/>
  <text x="187" y="105" font-family="Arial" font-size="20" fill="white" text-anchor="middle" font-weight="bold">Receipt #1234</text>
  <circle cx="340" cy="95" r="15" fill="none" stroke="white" stroke-width="2"/>
  <path d="M330,95 L335,100 L345,90" stroke="white" stroke-width="2" fill="none"/>
  <rect x="15" y="140" width="345" height="100" rx="12" fill="white" stroke="#e2e8f0"/>
  <circle cx="50" cy="175" r="30" fill="#22c55e"/>
  <text x="50" y="182" font-family="Arial" font-size="24" fill="white" text-anchor="middle">₹</text>
  <text x="100" y="165" font-family="Arial" font-size="22" fill="#1e293b" font-weight="bold">₹12,000</text>
  <text x="100" y="190" font-family="Arial" font-size="14" fill="#22c55e" font-weight="bold">PAID</text>
  <text x="330" y="175" font-family="Arial" font-size="12" fill="#64748b" text-anchor="end">Jan 15, 2026</text>
  <text x="330" y="195" font-family="Arial" font-size="12" fill="#64748b" text-anchor="end">Paid via UPI</text>
  <rect x="15" y="260" width="345" height="80" rx="12" fill="#f1f5f9"/>
  <text x="25" y="290" font-family="Arial" font-size="14" fill="#64748b">FROM</text>
  <circle cx="45" cy="310" r="20" fill="#3b82f6"/>
  <text x="45" y="316" font-family="Arial" font-size="14" fill="white" text-anchor="middle">JD</text>
  <text x="75" y="305" font-family="Arial" font-size="16" fill="#1e293b" font-weight="bold">John Doe</text>
  <text x="75" y="325" font-family="Arial" font-size="12" fill="#64748b">Room 101</text>
  <rect x="15" y="360" width="345" height="80" rx="12" fill="#f1f5f9"/>
  <text x="25" y="390" font-family="Arial" font-size="14" fill="#64748b">TO</text>
  <circle cx="45" cy="410" r="20" fill="#8b5cf6"/>
  <text x="45" y="416" font-family="Arial" font-size="14" fill="white" text-anchor="middle">MY</text>
  <text x="75" y="405" font-family="Arial" font-size="16" fill="#1e293b" font-weight="bold">Manage Your PG</text>
  <text x="75" y="425" font-family="Arial" font-size="12" fill="#64748b">Bank: HDFC****4521</text>
  <rect x="15" y="460" width="345" height="60" rx="12" fill="#f1f5f9"/>
  <text x="25" y="485" font-family="Arial" font-size="14" fill="#64748b">Transaction ID</text>
  <text x="330" y="485" font-family="Arial" font-size="12" fill="#64748b" text-anchor="end">TXN202601151234</text>
  <text x="25" y="505" font-family="Arial" font-size="14" fill="#64748b">Payment For</text>
  <text x="330" y="505" font-family="Arial" font-size="12" fill="#64748b" text-anchor="end">January 2026</text>
  <rect x="15" y="540" width="165" height="100" rx="12" fill="#f1f5f9"/>
  <text x="25" y="565" font-family="Arial" font-size="12" fill="#64748b">Room Rent</text>
  <text x="97" y="595" font-family="Arial" font-size="18" fill="#1e293b" text-anchor="middle" font-weight="bold">₹10,000</text>
  <rect x="195" y="540" width="165" height="100" rx="12" fill="#f1f5f9"/>
  <text x="205" y="565" font-family="Arial" font-size="12" fill="#64748b">Security Deposit</text>
  <text x="277" y="595" font-family="Arial" font-size="18" fill="#1e293b" text-anchor="middle" font-weight="bold">₹2,000</text>
  <rect x="15" y="660" width="345" height="80" rx="12" fill="#22c55e"/>
  <text x="25" y="690" font-family="Arial" font-size="14" fill="white">Total Paid</text>
  <text x="187" y="715" font-family="Arial" font-size="28" fill="white" text-anchor="middle" font-weight="bold">₹12,000</text>
  <circle cx="35" cy="770" r="12" fill="none" stroke="#64748b" stroke-width="2"/>
  <path d="M30,770 L33,774 L42,765" stroke="#64748b" stroke-width="2" fill="none"/>
  <circle cx="340" cy="770" r="25" fill="#1a1a4e"/>
  <text x="340" y="775" font-family="Arial" font-size="24" fill="white" text-anchor="middle">S</text>
</svg>