<svg width="600" height="400" viewBox="0 0 600 400" xmlns="http://www.w3.org/2000/svg">
  <defs>
    <linearGradient id="bgGrad" x1="0%" y1="0%" x2="100%" y2="100%">
      <stop offset="0%" style="stop-color:#1a1a4e"/>
      <stop offset="100%" style="stop-color:#1e3a8a"/>
    </linearGradient>
  </defs>
  <rect width="600" height="400" fill="url(#bgGrad)"/>
  <rect x="0" y="0" width="180" height="400" fill="#0f0f23"/>
  <rect x="180" y="0" width="420" height="50" fill="#1a1a4e"/>
  <circle cx="25" cy="25" r="12" fill="#3b82f6"/>
  <text x="55" y="32" font-family="Arial" font-size="16" fill="white" font-weight="bold">MY PG</text>
  <rect x="20" y="60" width="140" height="35" rx="8" fill="#3b82f6"/>
  <text x="90" y="82" font-family="Arial" font-size="12" fill="white" text-anchor="middle">Dashboard</text>
  <rect x="20" y="105" width="140" height="35" rx="8" fill="transparent"/>
  <text x="90" y="127" font-family="Arial" font-size="12" fill="white" text-anchor="middle">Tenants</text>
  <rect x="20" y="150" width="140" height="35" rx="8" fill="transparent"/>
  <text x="90" y="172" font-family="Arial" font-size="12" fill="white" text-anchor="middle">Payments</text>
  <rect x="20" y="195" width="140" height="35" rx="8" fill="transparent"/>
  <text x="90" y="217" font-family="Arial" font-size="12" fill="white" text-anchor="middle">Rooms</text>
  <rect x="20" y="240" width="140" height="35" rx="8" fill="transparent"/>
  <text x="90" y="262" font-family="Arial" font-size="12" fill="white" text-anchor="middle">Reports</text>
  <circle cx="30" cy="380" r="10" fill="#3b82f6"/>
  <text x="55" y="384" font-family="Arial" font-size="12" fill="white">Logout</text>
  <rect x="210" y="20" width="80" height="8" rx="4" fill="#22c55e"/>
  <rect x="300" y="20" width="80" height="8" rx="4" fill="#f59e0b"/>
  <rect x="390" y="20" width="80" height="8" rx="4" fill="#ef4444"/>
  <rect x="210" y="60" width="380" height="100" rx="12" fill="#22c55e" opacity="0.3"/>
  <text x="230" y="95" font-family="Arial" font-size="14" fill="white">Total Revenue</text>
  <text x="230" y="130" font-family="Arial" font-size="28" fill="white" font-weight="bold">₹4,82,000</text>
  <text x="540" y="130" font-family="Arial" font-size="14" fill="#22c55e" text-anchor="end">+12%</text>
  <rect x="210" y="175" width="180" height="80" rx="12" fill="rgba(255,255,255,0.1)"/>
  <text x="220" y="205" font-family="Arial" font-size="12" fill="#94a3b8">Total Tenants</text>
  <text x="220" y="235" font-family="Arial" font-size="24" fill="white" font-weight="bold">245</text>
  <rect x="410" y="175" width="180" height="80" rx="12" fill="rgba(255,255,255,0.1)"/>
  <text x="420" y="205" font-family="Arial" font-size="12" fill="#94a3b8">Total Rooms</text>
  <text x="420" y="235" font-family="Arial" font-size="24" fill="white" font-weight="bold">48</text>
  <rect x="210" y="270" width="380" height="115" rx="12" fill="rgba(255,255,255,0.1)"/>
  <text x="220" y="300" font-family="Arial" font-size="14" fill="white" font-weight="bold">Recent Payments</text>
  <circle cx="235" cy="335" r="15" fill="#3b82f6"/>
  <text x="235" y="340" font-family="Arial" font-size="10" fill="white" text-anchor="middle">JD</text>
  <text x="260" y="330" font-family="Arial" font-size="12" fill="white">John Doe</text>
  <text x="260" y="350" font-family="Arial" font-size="10" fill="#94a3b8">Room 101</text>
  <text x="540" y="330" font-family="Arial" font-size="12" fill="#22c55e" text-anchor="end">₹12,000</text>
  <circle cx="235" cy="365" r="15" fill="#8b5cf6"/>
  <text x="235" y="370" font-family="Arial" font-size="10" fill="white" text-anchor="middle">AS</text>
  <text x="260" y="365" font-family="Arial" font-size="12" fill="white">Alice Smith</text>
  <text x="260" y="380" font-family="Arial" font-size="10" fill="#94a3b8">Room 102</text>
  <text x="540" y="365" font-family="Arial" font-size="12" fill="#22c55e" text-anchor="end">₹10,000</text>
</svg>