<svg width="375" height="812" viewBox="0 0 375 812" xmlns="http://www.w3.org/2000/svg">
  <rect width="375" height="812" fill="#1a1a4e"/>
  <rect x="0" y="60" width="375" height="60" fill="#1e3a8a" opacity="0.5"/>
  <text x="20" y="100" font-family="Arial" font-size="22" fill="white" font-weight="bold">Dashboard</text>
  <circle cx="340" cy="95" r="18" fill="#3b82f6"/>
  <circle cx="340" cy="95" r="8" fill="white"/>
  <rect x="15" y="130" width="345" height="100" rx="12" fill="#3b82f6" opacity="0.4"/>
  <text x="25" y="160" font-family="Arial" font-size="14" fill="white">Total Occupancy</text>
  <text x="25" y="200" font-family="Arial" font-size="32" fill="white" font-weight="bold">94%</text>
  <rect x="260" y="170" width="85" height="45" rx="8" fill="#22c55e"/>
  <text x="302" y="200" font-family="Arial" font-size="12" fill="white" text-anchor="middle">+5%</text>
  <rect x="15" y="245" width="165" height="90" rx="12" fill="#2d2d7e"/>
  <text x="25" y="275" font-family="Arial" font-size="12" fill="#94a3b8">Total Tenants</text>
  <text x="25" y="310" font-family="Arial" font-size="24" fill="white" font-weight="bold">245</text>
  <rect x="195" y="245" width="165" height="90" rx="12" fill="#2d2d7e"/>
  <text x="205" y="275" font-family="Arial" font-size="12" fill="#94a3b8">Total Rooms</text>
  <text x="205" y="310" font-family="Arial" font-size="24" fill="white" font-weight="bold">48</text>
  <rect x="15" y="350" width="345" height="140" rx="12" fill="#2d2d7e"/>
  <text x="25" y="380" font-family="Arial" font-size="14" fill="white" font-weight="bold">Monthly Revenue</text>
  <rect x="25" y="400" width="310" height="8" rx="4" fill="#1e3a8a"/>
  <rect x="25" y="400" width="230" height="8" rx="4" fill="#22c55e"/>
  <text x="25" y="440" font-family="Arial" font-size="12" fill="#94a3b8">Oct</text>
  <text x="110" y="440" font-family="Arial" font-size="12" fill="#94a3b8">Nov</text>
  <text x="195" y="440" font-family="Arial" font-size="12" fill="#94a3b8">Dec</text>
  <text x="280" y="440" font-family="Arial" font-size="12" fill="#94a3b8">Jan</text>
  <text x="25" y="470" font-family="Arial" font-size="20" fill="#22c55e" font-weight="bold">₹4.8L</text>
  <text x="340" y="470" font-family="Arial" font-size="12" fill="#22c55e" text-anchor="end">+12%</text>
  <rect x="15" y="505" width="165" height="90" rx="12" fill="#2d2d7e"/>
  <text x="25" y="535" font-family="Arial" font-size="12" fill="#94a3b8">Available Beds</text>
  <text x="25" y="575" font-family="Arial" font-size="24" fill="white" font-weight="bold">8</text>
  <rect x="195" y="505" width="165" height="90" rx="12" fill="#2d2d7e"/>
  <text x="205" y="535" font-family="Arial" font-size="12" fill="#94a3b8">Pending Payments</text>
  <text x="205" y="575" font-family="Arial" font-size="24" fill="#f59e0b" font-weight="bold">12</text>
  <rect x="15" y="610" width="345" height="80" rx="12" fill="#2d2d7e"/>
  <text x="25" y="640" font-family="Arial" font-size="14" fill="white">Recent Activity</text>
  <circle cx="35" cy="670" r="8" fill="#22c55e"/>
  <text x="50" y="645" font-family="Arial" font-size="12" fill="#94a3b8">John Doe paid ₹12,000</text>
  <circle cx="35" cy="690" r="8" fill="#8b5cf6"/>
  <text x="50" y="665" font-family="Arial" font-size="12" fill="#94a3b8">New tenant added</text>
  <circle cx="35" cy="710" r="8" fill="#f59e0b"/>
  <text x="50" y="685" font-family="Arial" font-size="12" fill="#94a3b8">Payment pending from Rahul</text>
  <rect x="120" y="750" width="135" height="45" rx="22.5" fill="#3b82f6"/>
  <text x="187" y="780" font-family="Arial" font-size="16" fill="white" text-anchor="middle">+ Add Tenant</text>
</svg>